<svg width="27" height="29" viewBox="0 0 27 29" fill="none" xmlns="http://www.w3.org/2000/svg">
<path d="M25.5 0.5H1.5C1.10218 0.5 0.720645 0.658035 0.43934 0.93934C0.158036 1.22064 0 1.60218 0 2V5.885C0 6.6695 0.3195 7.4405 0.8745 7.9955L9 16.121V27.5C9.00029 27.7556 9.06581 28.0068 9.19035 28.23C9.31488 28.4531 9.49432 28.6408 9.71166 28.7753C9.92901 28.9097 10.1771 28.9864 10.4324 28.9982C10.6876 29.01 10.9417 28.9564 11.1705 28.8425L17.1705 25.8425C17.679 25.5875 18 25.0685 18 24.5V16.121L26.1255 7.9955C26.6805 7.4405 27 6.6695 27 5.885V2C27 1.60218 26.842 1.22064 26.5607 0.93934C26.2794 0.658035 25.8978 0.5 25.5 0.5ZM15.4395 14.4395C15.2999 14.5786 15.1893 14.7438 15.1138 14.9259C15.0384 15.1079 14.9997 15.303 15 15.5V23.573L12 25.073V15.5C12.0003 15.303 11.9616 15.1079 11.8862 14.9259C11.8107 14.7438 11.7001 14.5786 11.5605 14.4395L3 5.885V3.5H24.0015L24.0045 5.8745L15.4395 14.4395Z" fill="#504475"/>
</svg>
