<svg width="86" height="86" viewBox="0 0 86 86" fill="none" xmlns="http://www.w3.org/2000/svg">
<circle cx="7" cy="7" r="7" fill="#C5C1D1"/>
<circle cx="7" cy="25" r="7" fill="#C5C1D1"/>
<circle cx="7" cy="43" r="7" fill="#C5C1D1"/>
<circle cx="7" cy="61" r="7" fill="#C5C1D1"/>
<circle cx="7" cy="79" r="7" fill="#C5C1D1"/>
<circle cx="25" cy="7" r="7" fill="#C5C1D1"/>
<circle cx="25" cy="25" r="7" fill="#C5C1D1"/>
<circle cx="25" cy="43" r="7" fill="#C5C1D1"/>
<circle cx="25" cy="61" r="7" fill="#C5C1D1"/>
<circle cx="25" cy="79" r="7" fill="#C5C1D1"/>
<circle cx="43" cy="7" r="7" fill="#C5C1D1"/>
<circle cx="43" cy="25" r="7" fill="#C5C1D1"/>
<circle cx="43" cy="43" r="7" fill="#C5C1D1"/>
<circle cx="43" cy="61" r="7" fill="#C5C1D1"/>
<circle cx="43" cy="79" r="7" fill="#C5C1D1"/>
<circle cx="61" cy="7" r="7" fill="#C5C1D1"/>
<circle cx="61" cy="25" r="7" fill="#C5C1D1"/>
<circle cx="61" cy="43" r="7" fill="#C5C1D1"/>
<circle cx="61" cy="61" r="7" fill="#C5C1D1"/>
<circle cx="61" cy="79" r="7" fill="#C5C1D1"/>
<circle cx="79" cy="7" r="7" fill="#C5C1D1"/>
<circle cx="79" cy="25" r="7" fill="#C5C1D1"/>
<circle cx="79" cy="43" r="7" fill="#C5C1D1"/>
<circle cx="79" cy="61" r="7" fill="#C5C1D1"/>
<circle cx="79" cy="79" r="7" fill="#C5C1D1"/>
</svg>
